<svg xmlns="http://www.w3.org/2000/svg" viewBox="0 -800 800 1000"><path d="M436 -509 L436 -552 C436 -640.9 508.1 -713 597 -713 C685.9 -713 758 -640.9 758 -552 C758 -463.1 685.9 -391 597 -391 L554 -391 L554 -319 L597 -319 C685.9 -319 758 -246.9 758 -158 C758 -69.1 685.9 3 597 3 C508.1 3 436 -69.1 436 -158 L436 -201 L364 -201 L364 -158 C364 -69.1 291.9 3 203 3 C114.1 3 42 -69.1 42 -158 C42 -246.9 114.1 -319 203 -319 L246 -319 L246 -391 L203 -391 C114.1 -391 42 -463.1 42 -552 C42 -640.9 114.1 -713 203 -713 C291.9 -713 364 -640.9 364 -552 L364 -509 Z"/><path d="M364 -391 L364 -319 L436 -319 L436 -391 Z"/><path d="M597 -509 C620.7 -509 640 -528.3 640 -552 C640 -575.7 620.7 -595 597 -595 C573.3 -595 554 -575.7 554 -552 L554 -509 Z"/><path d="M554 -158 C554 -134.3 573.3 -115 597 -115 C620.7 -115 640 -134.3 640 -158 C640 -181.7 620.7 -201 597 -201 L554 -201 Z"/><path d="M203 -201 C179.3 -201 160 -181.7 160 -158 C160 -134.3 179.3 -115 203 -115 C226.7 -115 246 -134.3 246 -158 L246 -201 Z"/><path d="M246 -552 C246 -575.7 226.7 -595 203 -595 C179.3 -595 160 -575.7 160 -552 C160 -528.3 179.3 -509 203 -509 L246 -509 Z"/></svg>
