<?xml version="1.0" encoding="UTF-8"?>
<!-- Tray glyph variant 1: bold "PM" monogram.
     Designed to read at 16x16. Works as a macOS template image (single fill = black+alpha).
     Canvas 24x24, glyph inset with safe area, heavy stroke-free shapes. -->
<svg id="tray-pm" data-name="PM Monogram" xmlns="http://www.w3.org/2000/svg" viewBox="0 0 24 24">
  <!-- Single uniform fill; color overridden for color/icon use, alpha-only for mac template -->
  <path fill="#000000" d="M4.5,5 h6.2 c2.4,0 4.1,1.5 4.1,3.9 0,2.5 -1.7,4 -4.3,4 H7.2 v6.1 H4.5 Z m2.7,2.3 v3.3 h3.1 c1.1,0 1.8,-0.6 1.8,-1.65 0,-1.05 -0.7,-1.65 -1.8,-1.65 Z"/>
  <path fill="#000000" d="M14.5,19 V5 h2.5 l3.4,5.4 c0.3,0.5 0.6,1.1 0.9,1.8 h0.05 C21.25,11.3 21.2,10.6 21.2,9.9 V5 h2.6 v14 h-2.5 l-3.5,-5.5 c-0.3,-0.5 -0.6,-1.1 -0.9,-1.8 h-0.05 c0.05,0.85 0.1,1.55 0.1,2.25 V19 Z"/>
</svg>
